<?xml version="1.0" encoding="UTF-8" standalone="no"?>
<!DOCTYPE svg PUBLIC "-//W3C//DTD SVG 1.1//EN" "http://www.w3.org/Graphics/SVG/1.1/DTD/svg11.dtd">
<svg version="1.1" xmlns="http://www.w3.org/2000/svg" xmlns:xlink="http://www.w3.org/1999/xlink" preserveAspectRatio="xMidYMid meet" viewBox="64.3588589523826 240.17980916712156 47.96978209523479 53.99987833287844" width="43.97" height="50"><defs><path d="M107.87 241.19L107.96 241.2L108.04 241.21L108.13 241.23L108.21 241.26L108.28 241.28L108.36 241.32L108.43 241.35L108.51 241.39L108.57 241.43L108.64 241.47L108.71 241.52L108.77 241.57L108.83 241.63L108.88 241.68L108.94 241.74L108.99 241.81L109.03 241.87L109.08 241.94L109.12 242.01L109.16 242.08L109.19 242.15L109.22 242.23L109.25 242.31L109.27 242.39L109.29 242.47L109.31 242.55L109.32 242.63L109.33 242.72L109.33 242.8L109.33 242.89L109.32 242.98L105.6 284.67L105.59 284.76L105.58 284.85L105.56 284.94L105.54 285.03L105.51 285.11L105.48 285.2L105.45 285.29L105.41 285.38L105.38 285.46L105.33 285.55L105.29 285.63L105.24 285.71L105.19 285.79L105.13 285.87L105.08 285.95L105.02 286.03L104.96 286.1L104.89 286.17L104.83 286.24L104.76 286.31L104.69 286.37L104.61 286.44L104.54 286.5L104.46 286.55L104.39 286.61L104.31 286.66L104.23 286.71L104.15 286.75L104.07 286.79L103.98 286.83L103.9 286.86L103.81 286.89L103.73 286.92L89.05 290.99L88.96 291.01L88.87 291.03L88.78 291.05L88.68 291.07L88.58 291.09L88.48 291.1L88.38 291.12L88.27 291.13L88.17 291.14L88.06 291.15L87.95 291.16L87.84 291.17L87.73 291.17L87.62 291.18L87.5 291.18L87.39 291.18L87.28 291.18L87.16 291.18L87.05 291.18L86.94 291.17L86.83 291.16L86.72 291.16L86.61 291.15L86.5 291.14L86.39 291.13L86.29 291.11L86.18 291.1L86.08 291.08L85.99 291.07L85.89 291.05L85.8 291.03L85.71 291.01L85.62 290.98L70.96 286.91L70.87 286.88L70.79 286.85L70.7 286.82L70.62 286.78L70.54 286.74L70.46 286.7L70.38 286.65L70.3 286.6L70.22 286.54L70.15 286.48L70.07 286.42L70 286.36L69.93 286.3L69.86 286.23L69.79 286.16L69.73 286.09L69.67 286.01L69.61 285.93L69.55 285.86L69.5 285.78L69.45 285.7L69.4 285.61L69.35 285.53L69.31 285.44L69.27 285.36L69.23 285.27L69.2 285.18L69.17 285.1L69.15 285.01L69.13 284.92L69.11 284.83L69.09 284.74L69.08 284.65L65.37 242.98L65.36 242.89L65.36 242.8L65.36 242.72L65.37 242.63L65.38 242.55L65.4 242.47L65.42 242.39L65.44 242.31L65.47 242.23L65.5 242.15L65.53 242.08L65.57 242.01L65.61 241.94L65.65 241.87L65.7 241.81L65.75 241.74L65.81 241.68L65.86 241.63L65.92 241.57L65.98 241.52L66.05 241.47L66.11 241.43L66.18 241.39L66.25 241.35L66.33 241.32L66.4 241.28L66.48 241.26L66.56 241.23L66.64 241.21L66.73 241.2L66.81 241.19L66.9 241.18L66.99 241.18L107.7 241.18L107.79 241.18L107.87 241.19ZM74.24 250.83L74.22 250.83L74.21 250.83L74.19 250.84L74.17 250.84L74.16 250.84L74.14 250.84L74.12 250.84L74.11 250.85L74.09 250.85L74.07 250.86L74.06 250.86L74.04 250.86L74.03 250.87L74.01 250.87L73.99 250.88L73.98 250.89L73.96 250.89L73.95 250.9L73.93 250.91L73.92 250.91L73.9 250.92L73.89 250.93L73.88 250.94L73.86 250.95L73.85 250.96L73.83 250.97L73.82 250.98L73.81 250.99L73.79 251L73.78 251.01L73.77 251.02L73.76 251.03L73.74 251.04L73.73 251.05L73.72 251.06L73.71 251.08L73.7 251.09L73.69 251.1L73.68 251.11L73.67 251.13L73.66 251.14L73.65 251.16L73.64 251.17L73.63 251.18L73.62 251.2L73.61 251.21L73.6 251.23L73.6 251.24L73.59 251.26L73.58 251.27L73.58 251.29L73.57 251.3L73.56 251.32L73.56 251.33L73.55 251.35L73.55 251.36L73.54 251.38L73.54 251.4L73.54 251.41L73.53 251.43L73.53 251.45L73.53 251.46L73.53 251.48L73.52 251.49L73.52 251.51L73.52 251.53L73.52 251.54L73.52 251.56L73.52 251.58L73.52 251.59L73.52 251.61L73.52 251.63L73.52 251.65L73.89 255.09L73.89 255.12L73.89 255.15L73.9 255.18L73.91 255.21L73.92 255.24L73.93 255.26L73.94 255.29L73.95 255.32L73.96 255.34L73.97 255.37L73.99 255.39L74 255.42L74.02 255.44L74.04 255.46L74.06 255.49L74.07 255.51L74.09 255.53L74.11 255.55L74.14 255.57L74.16 255.59L74.18 255.6L74.2 255.62L74.23 255.64L74.25 255.65L74.28 255.66L74.3 255.68L74.33 255.69L74.36 255.7L74.38 255.71L74.41 255.72L74.44 255.73L74.47 255.73L74.5 255.74L74.53 255.74L74.56 255.75L74.59 255.75L74.62 255.75L87.13 255.75L87.14 255.75L87.15 255.75L87.16 255.75L87.17 255.75L87.18 255.75L87.19 255.76L87.2 255.76L87.22 255.76L87.23 255.77L87.24 255.77L87.25 255.77L87.26 255.78L87.27 255.78L87.28 255.79L87.29 255.79L87.3 255.8L87.31 255.81L87.31 255.81L87.32 255.82L87.33 255.83L87.34 255.84L87.35 255.84L87.35 255.85L87.36 255.86L87.37 255.87L87.38 255.88L87.38 255.89L87.39 255.9L87.39 255.91L87.4 255.92L87.4 255.93L87.41 255.94L87.41 255.95L87.42 255.96L87.42 255.97L87.42 255.98L87.42 255.99L87.43 256.01L87.43 256.02L87.43 256.03L87.43 256.04L87.43 256.05L87.43 256.06L87.43 256.07L87.43 256.09L87.43 256.1L87.43 256.11L87.42 256.12L87.42 256.13L87.42 256.14L87.41 256.15L87.41 256.16L87.41 256.17L87.4 256.18L87.4 256.19L87.39 256.2L87.39 256.21L87.38 256.22L87.37 256.23L87.37 256.24L87.36 256.25L87.35 256.26L87.34 256.26L87.34 256.27L87.33 256.28L87.32 256.29L87.31 256.29L87.3 256.3L87.29 256.31L87.28 256.31L87.27 256.32L87.26 256.33L87.25 256.33L87.24 256.33L75.36 261.23L75.33 261.25L75.29 261.27L75.25 261.28L75.22 261.3L75.19 261.32L75.16 261.34L75.12 261.37L75.09 261.39L75.06 261.42L75.04 261.44L75.01 261.47L74.98 261.49L74.96 261.52L74.93 261.55L74.91 261.58L74.88 261.61L74.86 261.64L74.84 261.67L74.82 261.71L74.81 261.74L74.79 261.77L74.77 261.81L74.76 261.84L74.74 261.88L74.73 261.91L74.72 261.95L74.71 261.99L74.7 262.03L74.7 262.06L74.69 262.1L74.68 262.14L74.68 262.18L74.68 262.22L74.68 262.26L74.68 262.3L74.68 262.33L74.69 262.37L75.04 265.58L75.04 265.62L75.05 265.67L75.06 265.71L75.07 265.75L75.09 265.8L75.1 265.84L75.12 265.88L75.13 265.92L75.15 265.96L75.17 266L75.19 266.03L75.22 266.07L75.24 266.11L75.27 266.14L75.3 266.17L75.32 266.2L75.35 266.24L75.38 266.27L75.42 266.29L75.45 266.32L75.48 266.35L75.52 266.37L75.55 266.39L75.59 266.42L75.63 266.44L75.67 266.46L75.71 266.47L75.75 266.49L75.79 266.5L75.83 266.52L75.87 266.53L75.91 266.54L75.96 266.55L76 266.55L76.05 266.56L76.09 266.56L76.14 266.56L94.7 266.56L93.89 274.12L87.33 276.41L80.79 274.14L80.41 270.5L80.4 270.45L80.39 270.41L80.38 270.36L80.37 270.32L80.36 270.28L80.35 270.24L80.33 270.19L80.31 270.15L80.29 270.12L80.27 270.08L80.25 270.04L80.23 270L80.2 269.97L80.18 269.93L80.15 269.9L80.12 269.87L80.09 269.84L80.06 269.81L80.03 269.78L80 269.75L79.96 269.73L79.93 269.7L79.89 269.68L79.86 269.65L79.82 269.63L79.78 269.62L79.74 269.6L79.7 269.58L79.66 269.57L79.62 269.55L79.58 269.54L79.53 269.53L79.49 269.52L79.44 269.52L79.4 269.51L79.35 269.51L79.31 269.51L76.68 269.51L76.66 269.51L76.63 269.51L76.61 269.51L76.58 269.51L76.56 269.52L76.53 269.52L76.51 269.52L76.48 269.53L76.46 269.53L76.43 269.54L76.41 269.54L76.39 269.55L76.36 269.56L76.34 269.57L76.31 269.57L76.29 269.58L76.27 269.59L76.24 269.6L76.22 269.61L76.2 269.62L76.18 269.63L76.16 269.64L76.13 269.66L76.11 269.67L76.09 269.68L76.07 269.7L76.05 269.71L76.03 269.72L76.01 269.74L75.99 269.75L75.97 269.77L75.95 269.79L75.93 269.8L75.91 269.82L75.9 269.84L75.88 269.86L75.86 269.88L75.85 269.89L75.83 269.91L75.81 269.93L75.8 269.95L75.78 269.97L75.77 269.99L75.75 270.02L75.74 270.04L75.73 270.06L75.72 270.08L75.7 270.1L75.69 270.12L75.68 270.15L75.67 270.17L75.66 270.19L75.65 270.22L75.64 270.24L75.64 270.26L75.63 270.29L75.62 270.31L75.62 270.33L75.61 270.36L75.6 270.38L75.6 270.41L75.59 270.43L75.59 270.46L75.59 270.48L75.58 270.5L75.58 270.53L75.58 270.55L75.58 270.58L75.58 270.6L75.58 270.63L75.58 270.65L75.58 270.68L75.58 270.71L75.59 270.73L76.22 276.66L76.22 276.71L76.23 276.76L76.24 276.82L76.25 276.87L76.27 276.92L76.28 276.97L76.3 277.01L76.31 277.06L76.33 277.11L76.35 277.16L76.37 277.2L76.39 277.25L76.42 277.29L76.44 277.34L76.47 277.38L76.5 277.42L76.53 277.47L76.56 277.51L76.59 277.55L76.62 277.58L76.66 277.62L76.69 277.66L76.73 277.69L76.76 277.73L76.8 277.76L76.84 277.79L76.88 277.83L76.92 277.85L76.96 277.88L77.01 277.91L77.05 277.94L77.1 277.96L77.14 277.99L77.19 278.01L77.24 278.03L77.29 278.05L77.34 278.07L86.77 281.34L86.8 281.35L86.83 281.35L86.86 281.36L86.89 281.37L86.92 281.38L86.95 281.39L86.98 281.39L87.01 281.4L87.04 281.4L87.07 281.41L87.1 281.41L87.13 281.42L87.16 281.42L87.19 281.42L87.22 281.42L87.25 281.43L87.28 281.43L87.31 281.43L87.34 281.43L87.37 281.43L87.4 281.43L87.43 281.42L87.46 281.42L87.49 281.42L87.52 281.42L87.55 281.41L87.58 281.41L87.61 281.4L87.64 281.4L87.67 281.39L87.7 281.38L87.73 281.38L87.76 281.37L87.79 281.36L87.82 281.35L87.85 281.34L87.88 281.33L97.36 278L97.41 277.98L97.46 277.96L97.5 277.94L97.55 277.92L97.6 277.89L97.64 277.87L97.69 277.84L97.73 277.81L97.77 277.78L97.81 277.75L97.85 277.72L97.89 277.69L97.93 277.66L97.97 277.62L98 277.59L98.04 277.55L98.07 277.51L98.1 277.47L98.13 277.44L98.16 277.4L98.19 277.35L98.22 277.31L98.25 277.27L98.27 277.22L98.29 277.18L98.32 277.13L98.34 277.09L98.36 277.04L98.38 276.99L98.39 276.95L98.41 276.9L98.42 276.85L98.44 276.8L98.45 276.75L98.46 276.7L98.46 276.65L98.47 276.59L99.87 263.5L99.87 263.46L99.87 263.42L99.87 263.38L99.88 263.35L99.88 263.31L99.87 263.27L99.87 263.23L99.87 263.19L99.87 263.16L99.86 263.12L99.86 263.08L99.85 263.04L99.85 263.01L99.84 262.97L99.83 262.93L99.82 262.9L99.81 262.86L99.8 262.82L99.79 262.79L99.78 262.75L99.76 262.72L99.75 262.68L99.73 262.65L99.72 262.61L99.7 262.58L99.68 262.54L99.67 262.51L99.65 262.48L99.63 262.45L99.61 262.41L99.59 262.38L99.57 262.35L99.54 262.32L99.52 262.29L99.5 262.26L99.47 262.23L99.45 262.2L99.42 262.17L99.39 262.15L99.37 262.12L99.34 262.09L99.31 262.07L99.28 262.04L99.25 262.02L99.22 261.99L99.19 261.97L99.16 261.95L99.13 261.93L99.1 261.91L99.07 261.89L99.03 261.87L99 261.85L98.97 261.83L98.93 261.81L98.9 261.8L98.86 261.78L98.83 261.77L98.79 261.76L98.76 261.74L98.72 261.73L98.69 261.72L98.65 261.71L98.61 261.7L98.58 261.69L98.54 261.68L98.5 261.67L98.47 261.67L98.43 261.66L98.39 261.66L98.35 261.65L98.32 261.65L98.28 261.65L98.24 261.65L98.2 261.65L89.27 261.65L89.25 261.65L89.24 261.64L89.22 261.64L89.21 261.64L89.2 261.64L89.18 261.64L89.17 261.63L89.16 261.63L89.14 261.62L89.13 261.62L89.12 261.61L89.11 261.61L89.09 261.6L89.08 261.6L89.07 261.59L89.06 261.58L89.05 261.57L89.04 261.57L89.03 261.56L89.02 261.55L89.01 261.54L89 261.53L88.99 261.52L88.98 261.51L88.97 261.5L88.96 261.49L88.96 261.48L88.95 261.46L88.94 261.45L88.93 261.44L88.93 261.43L88.92 261.41L88.92 261.4L88.91 261.39L88.91 261.38L88.91 261.36L88.9 261.35L88.9 261.33L88.9 261.32L88.9 261.31L88.9 261.29L88.9 261.28L88.9 261.26L88.9 261.25L88.9 261.24L88.9 261.22L88.9 261.21L88.91 261.2L88.91 261.18L88.91 261.17L88.92 261.16L88.92 261.14L88.93 261.13L88.93 261.12L88.94 261.11L88.94 261.09L88.95 261.08L88.96 261.07L88.97 261.06L88.97 261.05L88.98 261.04L88.99 261.03L89 261.02L89.01 261.01L89.02 261L89.03 260.99L89.04 260.98L89.05 260.97L89.06 260.97L89.08 260.96L89.09 260.95L89.1 260.95L89.11 260.94L89.13 260.93L100.61 256.23L100.61 256.23L100.62 256.23L100.62 256.23L100.62 256.24L100.63 256.23L100.63 256.23L100.63 256.23L100.64 256.23L100.64 256.22L101.16 251.65L101.16 251.63L101.16 251.62L101.16 251.6L101.16 251.58L101.16 251.57L101.16 251.55L101.16 251.53L101.16 251.52L101.16 251.5L101.16 251.48L101.16 251.47L101.15 251.45L101.15 251.43L101.15 251.42L101.14 251.4L101.14 251.39L101.13 251.37L101.13 251.35L101.12 251.34L101.12 251.32L101.11 251.31L101.11 251.29L101.1 251.28L101.09 251.26L101.09 251.25L101.08 251.23L101.07 251.22L101.06 251.2L101.06 251.19L101.05 251.17L101.04 251.16L101.03 251.14L101.02 251.13L101.01 251.12L101 251.1L100.99 251.09L100.98 251.08L100.96 251.07L100.95 251.05L100.94 251.04L100.93 251.03L100.92 251.02L100.9 251.01L100.89 251L100.88 250.99L100.86 250.98L100.85 250.97L100.84 250.96L100.82 250.95L100.81 250.94L100.79 250.93L100.78 250.92L100.76 250.91L100.75 250.91L100.73 250.9L100.72 250.89L100.7 250.89L100.69 250.88L100.67 250.88L100.66 250.87L100.64 250.86L100.63 250.86L100.61 250.86L100.59 250.85L100.58 250.85L100.56 250.84L100.54 250.84L100.53 250.84L100.51 250.84L100.49 250.84L100.48 250.83L100.46 250.83L100.44 250.83L100.43 250.83L74.26 250.83L74.24 250.83Z" id="a16QSYMIAZ"></path></defs><g><g><use xlink:href="#a16QSYMIAZ" opacity="1" fill="#006df0" fill-opacity="1"></use><g><use xlink:href="#a16QSYMIAZ" opacity="1" fill-opacity="0" stroke="#000000" stroke-width="1" stroke-opacity="0"></use></g></g></g></svg>