<?xml version="1.0" encoding="UTF-8" standalone="no"?>
<!DOCTYPE svg PUBLIC "-//W3C//DTD SVG 1.1//EN" "http://www.w3.org/Graphics/SVG/1.1/DTD/svg11.dtd">
<svg version="1.1" xmlns="http://www.w3.org/2000/svg" xmlns:xlink="http://www.w3.org/1999/xlink" preserveAspectRatio="xMidYMid meet" viewBox="131.21875000000003 239.253765060241 54 52.76000000000005" width="50" height="48.76"><defs><path d="M159.28 240.32L160.3 240.42L161.32 240.56L162.33 240.74L163.32 240.97L164.3 241.23L165.27 241.54L166.21 241.88L167.15 242.27L168.06 242.69L168.96 243.14L169.84 243.63L170.69 244.16L171.53 244.72L172.34 245.31L173.13 245.94L173.89 246.6L174.62 247.28L175.33 248L176.01 248.74L176.66 249.52L177.28 250.32L177.87 251.15L178.43 252L178.95 252.87L179.44 253.77L179.89 254.7L180.31 255.64L180.69 256.61L181.02 257.6L181.32 258.6L181.58 259.63L181.8 260.67L181.97 261.73L182.1 262.81L182.17 263.66L182.21 264.51L182.22 265.36L182.2 266.2L182.16 267.03L182.09 267.87L181.99 268.69L181.86 269.51L181.71 270.32L181.53 271.12L181.32 271.92L181.09 272.7L180.84 273.48L180.56 274.24L180.25 275L179.93 275.74L179.57 276.47L179.2 277.19L178.8 277.9L178.38 278.59L177.94 279.27L177.47 279.94L176.99 280.59L176.48 281.22L175.95 281.84L175.4 282.44L174.84 283.02L174.25 283.58L173.64 284.13L173.01 284.66L172.37 285.16L171.71 285.65L171.02 286.12L170.33 286.56L169.61 286.98L168.88 287.38L168.13 287.76L167.36 288.11L166.58 288.44L165.78 288.74L165.77 288.75L165.73 288.76L165.71 288.77L165.69 288.78L165.66 288.79L165.6 288.81L165.56 288.82L165.53 288.84L165.51 288.84L165.49 288.85L165.47 288.86L165.45 288.86L165.44 288.87L165.42 288.88L165.4 288.88L165.38 288.89L165.36 288.9L165.34 288.9L165.33 288.91L165.31 288.91L165.29 288.92L165.27 288.93L165.25 288.93L165.23 288.94L165.21 288.94L165.2 288.95L165.18 288.95L165.16 288.96L165.14 288.96L165.12 288.97L165.1 288.97L165.08 288.97L165.06 288.98L165.05 288.98L164.97 288.99L164.9 289L164.84 289.01L164.77 289.01L164.7 289.01L164.64 289.01L164.57 289.01L164.51 289L164.45 289L164.39 288.99L164.34 288.97L164.28 288.96L164.23 288.94L164.18 288.92L164.13 288.9L164.08 288.88L164.03 288.85L163.98 288.82L163.94 288.79L163.9 288.76L163.86 288.73L163.82 288.69L163.78 288.65L163.75 288.61L163.71 288.56L163.68 288.52L163.65 288.47L163.63 288.42L163.6 288.37L163.58 288.32L163.56 288.26L163.54 288.2L163.52 288.14L163.51 288.08L163.5 288.02L163.49 287.95L163.48 287.89L163.47 287.82L163.47 287.75L163.47 287.68L163.46 287.54L163.46 287.4L163.46 287.27L163.46 287.13L163.46 286.99L163.46 286.86L163.46 286.72L163.46 286.58L163.46 286.45L163.46 286.31L163.46 286.17L163.46 286.04L163.46 285.9L163.46 285.76L163.46 285.63L163.46 285.49L163.46 285.35L163.46 285.22L163.46 285.08L163.46 284.94L163.46 284.81L163.46 284.67L163.46 284.53L163.46 284.4L163.46 284.26L163.46 284.12L163.46 283.99L163.46 283.85L163.46 283.71L163.47 283.58L163.47 283.44L163.47 283.3L163.47 283.17L163.47 283.03L163.47 282.89L163.47 282.76L163.48 282.62L163.48 282.49L163.48 282.35L163.48 282.21L163.48 282.05L163.49 281.9L163.49 281.74L163.49 281.58L163.49 281.43L163.49 281.27L163.48 281.12L163.48 280.96L163.47 280.81L163.47 280.65L163.46 280.5L163.45 280.34L163.44 280.19L163.42 280.04L163.41 279.88L163.39 279.73L163.37 279.58L163.34 279.43L163.32 279.28L163.29 279.13L163.25 278.98L163.22 278.83L163.18 278.68L163.14 278.54L163.09 278.39L163.04 278.25L162.99 278.1L162.93 277.96L162.87 277.82L162.8 277.67L162.73 277.53L162.65 277.4L162.57 277.26L162.49 277.12L162.4 276.98L162.3 276.85L162.2 276.71L162.1 276.58L161.99 276.45L161.87 276.32L161.94 276.31L162.01 276.29L162.08 276.28L162.15 276.27L162.22 276.26L162.29 276.25L162.36 276.23L162.43 276.22L162.5 276.21L162.56 276.2L162.63 276.19L162.76 276.17L162.83 276.15L162.9 276.14L162.96 276.13L163.03 276.12L163.09 276.11L163.16 276.1L163.22 276.09L163.29 276.08L163.35 276.07L163.42 276.05L163.48 276.04L163.55 276.03L163.61 276.02L163.67 276.01L163.74 276L163.8 275.98L163.86 275.97L163.93 275.96L163.99 275.95L164.05 275.93L164.11 275.92L164.18 275.91L164.24 275.9L164.3 275.88L164.36 275.87L164.43 275.86L164.49 275.84L164.89 275.74L165.29 275.64L165.67 275.52L166.05 275.4L166.42 275.27L166.77 275.13L167.12 274.98L167.45 274.82L167.78 274.66L168.1 274.49L168.41 274.31L168.7 274.12L168.99 273.92L169.27 273.71L169.54 273.5L169.8 273.28L170.05 273.05L170.29 272.81L170.52 272.56L170.74 272.3L170.95 272.04L171.15 271.77L171.34 271.48L171.52 271.19L171.7 270.9L171.86 270.59L172.01 270.28L172.16 269.95L172.29 269.62L172.42 269.28L172.54 268.93L172.64 268.57L172.74 268.21L172.83 267.84L172.91 267.45L172.97 267.06L173.03 266.66L173.08 266.25L173.13 265.84L173.16 265.41L173.17 265.19L173.18 264.98L173.19 264.76L173.19 264.55L173.19 264.33L173.19 264.12L173.19 263.91L173.18 263.69L173.17 263.48L173.15 263.27L173.14 263.07L173.12 262.86L173.09 262.65L173.06 262.45L173.03 262.24L173 262.04L172.96 261.84L172.91 261.64L172.87 261.44L172.82 261.24L172.76 261.04L172.71 260.85L172.64 260.65L172.58 260.46L172.51 260.27L172.43 260.07L172.35 259.88L172.27 259.7L172.18 259.51L172.08 259.32L171.99 259.14L171.88 258.95L171.78 258.77L171.67 258.59L171.55 258.41L171.43 258.23L171.3 258.05L171.17 257.88L171.03 257.7L170.89 257.53L170.88 257.52L170.87 257.51L170.86 257.49L170.85 257.48L170.84 257.46L170.83 257.45L170.83 257.43L170.82 257.41L170.81 257.4L170.81 257.38L170.8 257.36L170.8 257.34L170.79 257.32L170.79 257.3L170.78 257.28L170.78 257.26L170.78 257.24L170.77 257.22L170.77 257.2L170.77 257.18L170.77 257.16L170.77 257.13L170.77 257.11L170.77 257.09L170.77 257.07L170.77 257.05L170.77 257.03L170.77 257.01L170.77 256.99L170.77 256.96L170.77 256.94L170.78 256.92L170.78 256.9L170.78 256.88L170.78 256.86L170.79 256.84L170.79 256.82L170.8 256.8L170.8 256.79L170.81 256.77L170.84 256.63L170.88 256.48L170.91 256.34L170.94 256.2L170.97 256.06L170.99 255.92L171.02 255.78L171.04 255.64L171.06 255.49L171.07 255.35L171.08 255.21L171.1 255.07L171.11 254.93L171.11 254.79L171.12 254.65L171.12 254.51L171.12 254.37L171.12 254.23L171.11 254.09L171.11 253.95L171.1 253.81L171.09 253.67L171.08 253.53L171.06 253.39L171.05 253.25L171.03 253.11L171.01 252.97L170.98 252.83L170.96 252.69L170.93 252.55L170.91 252.42L170.88 252.28L170.84 252.14L170.81 252L170.77 251.86L170.74 251.72L170.7 251.58L170.66 251.44L170.62 251.3L170.57 251.16L170.56 251.13L170.55 251.1L170.54 251.06L170.52 251.03L170.51 251L170.5 250.98L170.48 250.95L170.47 250.92L170.45 250.9L170.44 250.87L170.42 250.85L170.41 250.83L170.39 250.81L170.37 250.79L170.36 250.77L170.34 250.75L170.32 250.74L170.3 250.72L170.28 250.7L170.26 250.69L170.24 250.68L170.22 250.67L170.2 250.65L170.17 250.64L170.15 250.63L170.13 250.63L170.1 250.62L170.08 250.61L170.05 250.61L170.02 250.6L170 250.6L169.97 250.59L169.94 250.59L169.91 250.59L169.88 250.58L169.85 250.58L169.82 250.58L169.79 250.58L169.75 250.59L169.72 250.59L169.6 250.59L169.48 250.6L169.36 250.62L169.24 250.63L169.12 250.64L169.01 250.66L168.89 250.68L168.77 250.7L168.66 250.72L168.54 250.74L168.43 250.76L168.31 250.79L168.2 250.82L168.08 250.85L167.97 250.88L167.86 250.91L167.75 250.94L167.64 250.98L167.53 251.02L167.42 251.06L167.31 251.1L167.2 251.14L167.09 251.18L166.98 251.22L166.88 251.27L166.77 251.32L166.66 251.36L166.56 251.41L166.45 251.46L166.35 251.52L166.25 251.57L166.14 251.62L166.04 251.68L165.94 251.74L165.84 251.8L165.74 251.86L165.64 251.92L165.54 251.98L165.44 252.04L165.35 252.11L165.25 252.17L165.16 252.23L165.07 252.28L164.97 252.34L164.88 252.39L164.79 252.44L164.7 252.49L164.6 252.53L164.51 252.57L164.42 252.62L164.33 252.65L164.23 252.69L164.14 252.72L164.05 252.75L163.95 252.78L163.86 252.81L163.77 252.83L163.67 252.85L163.58 252.87L163.48 252.89L163.39 252.9L163.29 252.92L163.2 252.93L163.1 252.94L163 252.94L162.91 252.95L162.81 252.95L162.71 252.95L162.61 252.95L162.51 252.94L162.4 252.94L162.3 252.93L162.2 252.92L162.09 252.91L161.99 252.89L161.88 252.87L161.78 252.86L161.67 252.84L161.56 252.81L161.45 252.79L161.2 252.74L160.96 252.69L160.71 252.64L160.46 252.6L160.22 252.56L159.97 252.52L159.73 252.49L159.48 252.46L159.24 252.43L158.99 252.41L158.74 252.39L158.5 252.37L158.25 252.36L158.01 252.35L157.76 252.34L157.52 252.33L157.27 252.33L157.02 252.33L156.78 252.34L156.53 252.35L156.29 252.36L156.04 252.37L155.79 252.38L155.55 252.4L155.3 252.42L155.06 252.45L154.81 252.47L154.56 252.5L154.32 252.53L154.07 252.56L153.83 252.6L153.58 252.64L153.34 252.68L153.09 252.72L152.85 252.77L152.6 252.81L152.36 252.86L152.11 252.91L151.87 252.97L151.62 253.02L151.59 253.03L151.56 253.03L151.54 253.04L151.51 253.04L151.48 253.05L151.45 253.05L151.42 253.05L151.39 253.05L151.36 253.05L151.32 253.05L151.29 253.05L151.26 253.05L151.23 253.05L151.2 253.04L151.17 253.04L151.14 253.04L151.1 253.03L151.07 253.03L151.04 253.02L151.01 253.02L150.98 253.01L150.94 253L150.91 252.99L150.88 252.99L150.85 252.98L150.82 252.97L150.79 252.96L150.76 252.95L150.73 252.94L150.7 252.93L150.67 252.91L150.64 252.9L150.61 252.89L150.58 252.88L150.55 252.86L150.52 252.85L150.5 252.84L150.47 252.82L150.44 252.81L150.42 252.79L150.3 252.73L150.19 252.66L150.07 252.59L149.96 252.53L149.84 252.46L149.73 252.39L149.61 252.33L149.5 252.26L149.38 252.2L149.26 252.13L149.15 252.07L149.03 252.01L148.91 251.94L148.8 251.88L148.68 251.82L148.56 251.76L148.45 251.7L148.33 251.64L148.21 251.59L148.09 251.53L147.97 251.47L147.85 251.42L147.73 251.37L147.61 251.31L147.49 251.26L147.36 251.21L147.24 251.17L147.12 251.12L147 251.07L146.87 251.03L146.75 250.99L146.62 250.94L146.49 250.9L146.37 250.87L146.24 250.83L146.11 250.8L145.98 250.76L145.85 250.73L145.72 250.7L145.59 250.68L145.49 250.66L145.39 250.64L145.3 250.62L145.21 250.61L145.13 250.59L145.05 250.58L144.98 250.57L144.9 250.56L144.84 250.56L144.77 250.55L144.71 250.55L144.65 250.55L144.6 250.55L144.55 250.56L144.5 250.57L144.45 250.58L144.41 250.59L144.36 250.6L144.32 250.62L144.29 250.64L144.25 250.67L144.22 250.69L144.18 250.72L144.15 250.76L144.12 250.79L144.09 250.83L144.07 250.88L144.04 250.92L144.01 250.97L143.99 251.03L143.96 251.09L143.94 251.15L143.91 251.22L143.89 251.29L143.87 251.36L143.84 251.44L143.82 251.52L143.79 251.61L143.77 251.7L143.74 251.8L143.71 251.92L143.67 252.05L143.64 252.17L143.61 252.3L143.59 252.42L143.56 252.55L143.54 252.67L143.51 252.8L143.49 252.92L143.48 253.05L143.46 253.17L143.44 253.3L143.43 253.42L143.41 253.55L143.4 253.67L143.39 253.8L143.39 253.92L143.38 254.05L143.38 254.17L143.38 254.3L143.37 254.42L143.38 254.55L143.38 254.67L143.38 254.8L143.39 254.92L143.4 255.05L143.41 255.17L143.42 255.3L143.43 255.43L143.45 255.55L143.47 255.68L143.48 255.8L143.5 255.93L143.53 256.05L143.55 256.18L143.58 256.3L143.61 256.43L143.64 256.55L143.67 256.68L143.7 256.81L143.71 256.82L143.71 256.84L143.72 256.86L143.72 256.88L143.72 256.9L143.72 256.92L143.73 256.94L143.73 256.97L143.73 256.99L143.73 257.01L143.73 257.03L143.73 257.05L143.73 257.08L143.72 257.1L143.72 257.12L143.72 257.15L143.72 257.17L143.71 257.19L143.71 257.21L143.71 257.24L143.7 257.26L143.7 257.28L143.69 257.3L143.69 257.33L143.68 257.35L143.67 257.37L143.67 257.39L143.66 257.41L143.65 257.43L143.64 257.45L143.63 257.47L143.62 257.49L143.61 257.51L143.6 257.53L143.59 257.54L143.58 257.56L143.57 257.58L143.56 257.59L143.55 257.61L143.54 257.62L143.28 257.93L143.03 258.25L142.8 258.59L142.6 258.93L142.4 259.29L142.23 259.65L142.07 260.03L141.93 260.41L141.8 260.8L141.69 261.19L141.59 261.59L141.51 262L141.44 262.41L141.39 262.82L141.34 263.24L141.32 263.66L141.3 264.08L141.3 264.5L141.31 264.92L141.33 265.33L141.36 265.75L141.41 266.16L141.46 266.57L141.53 266.98L141.6 267.38L141.68 267.77L141.78 268.16L141.88 268.54L141.99 268.91L142.11 269.27L142.24 269.62L142.37 269.96L142.51 270.29L142.66 270.61L142.81 270.91L142.97 271.2L143.14 271.48L143.31 271.74L143.49 271.99L143.67 272.21L143.81 272.38L143.96 272.55L144.1 272.7L144.26 272.86L144.41 273.01L144.56 273.15L144.72 273.3L144.88 273.43L145.04 273.57L145.2 273.69L145.37 273.82L145.53 273.94L145.7 274.06L145.87 274.17L146.05 274.28L146.22 274.39L146.4 274.49L146.58 274.59L146.76 274.69L146.94 274.78L147.12 274.87L147.31 274.95L147.49 275.04L147.68 275.12L147.87 275.19L148.06 275.27L148.25 275.34L148.45 275.41L148.64 275.47L148.84 275.54L149.04 275.6L149.24 275.65L149.44 275.71L149.64 275.76L149.85 275.81L150.05 275.86L150.26 275.91L150.46 275.95L150.67 276L150.88 276.04L150.92 276.04L150.96 276.05L150.99 276.06L151.03 276.06L151.07 276.07L151.1 276.08L151.14 276.08L151.18 276.09L151.21 276.1L151.25 276.1L151.28 276.11L151.32 276.11L151.36 276.12L151.39 276.13L151.43 276.13L151.47 276.14L151.5 276.14L151.54 276.15L151.61 276.16L151.65 276.17L151.8 276.19L151.87 276.2L151.94 276.22L151.98 276.22L152.02 276.23L152.05 276.23L152.09 276.24L152.13 276.25L152.16 276.25L152.2 276.26L152.23 276.26L152.27 276.27L152.31 276.28L152.34 276.28L152.34 276.28L152.34 276.28L152.31 276.36L152.28 276.45L152.25 276.53L152.22 276.61L152.19 276.69L152.16 276.77L152.13 276.85L152.1 276.93L152.07 277.01L152.04 277.09L152.01 277.17L151.98 277.25L151.95 277.33L151.92 277.41L151.89 277.49L151.86 277.56L151.83 277.64L151.8 277.72L151.77 277.8L151.74 277.88L151.71 277.96L151.68 278.03L151.65 278.11L151.62 278.19L151.59 278.27L151.56 278.34L151.53 278.42L151.5 278.5L151.47 278.57L151.43 278.65L151.4 278.73L151.37 278.8L151.34 278.88L151.31 278.96L151.28 279.03L151.25 279.11L151.22 279.19L151.19 279.26L151.15 279.34L151.12 279.41L151.12 279.43L151.11 279.44L151.1 279.46L151.09 279.47L151.08 279.49L151.07 279.5L151.06 279.51L151.05 279.53L151.04 279.54L151.03 279.55L151.02 279.57L151.01 279.58L150.99 279.59L150.98 279.61L150.96 279.62L150.95 279.63L150.94 279.64L150.92 279.65L150.91 279.67L150.89 279.68L150.87 279.69L150.86 279.7L150.84 279.71L150.83 279.72L150.81 279.73L150.79 279.74L150.78 279.75L150.76 279.76L150.74 279.77L150.73 279.78L150.71 279.79L150.69 279.8L150.68 279.81L150.66 279.81L150.64 279.82L150.62 279.83L150.61 279.84L150.59 279.84L150.57 279.85L150.56 279.86L150.35 279.93L150.15 280L149.95 280.06L149.75 280.12L149.55 280.17L149.35 280.21L149.16 280.25L148.96 280.27L148.77 280.3L148.58 280.31L148.39 280.32L148.2 280.32L148.02 280.31L147.84 280.3L147.66 280.28L147.48 280.26L147.3 280.22L147.12 280.18L146.95 280.14L146.78 280.08L146.61 280.03L146.45 279.96L146.28 279.89L146.12 279.81L145.96 279.72L145.81 279.63L145.65 279.53L145.5 279.42L145.35 279.31L145.2 279.19L145.06 279.07L144.92 278.94L144.78 278.8L144.64 278.65L144.51 278.5L144.38 278.34L144.25 278.18L144.13 278.01L144 277.83L143.89 277.65L143.82 277.55L143.76 277.45L143.69 277.35L143.63 277.26L143.56 277.17L143.49 277.07L143.42 276.98L143.35 276.89L143.28 276.81L143.21 276.72L143.13 276.64L143.06 276.55L142.98 276.47L142.9 276.39L142.83 276.31L142.75 276.24L142.66 276.16L142.58 276.09L142.5 276.02L142.41 275.95L142.32 275.89L142.24 275.82L142.15 275.76L142.05 275.7L141.96 275.64L141.87 275.58L141.77 275.53L141.67 275.48L141.57 275.43L141.47 275.38L141.37 275.34L141.27 275.29L141.16 275.25L141.05 275.22L140.94 275.18L140.83 275.15L140.72 275.12L140.6 275.09L140.48 275.06L140.36 275.04L140.36 275.04L140.35 275.04L140.34 275.03L140.33 275.03L140.3 275.02L140.29 275.02L140.28 275.02L140.26 275.01L140.26 275.01L140.25 275.01L140.24 275.01L140.24 275.01L140.23 275.01L140.22 275.01L140.22 275.01L140.21 275.01L140.18 275.02L140.15 275.03L140.12 275.04L140.08 275.04L140.02 275.06L139.95 275.08L139.92 275.09L139.86 275.1L139.79 275.12L139.76 275.13L139.73 275.14L139.66 275.16L139.6 275.17L139.57 275.18L139.47 275.21L139.25 275.27L139.18 275.29L139.08 275.31L139.05 275.32L138.99 275.34L138.92 275.36L138.94 275.38L138.96 275.41L138.98 275.44L138.99 275.46L139.01 275.49L139.03 275.52L139.05 275.54L139.06 275.57L139.08 275.6L139.1 275.63L139.11 275.66L139.13 275.68L139.14 275.71L139.16 275.74L139.18 275.77L139.19 275.79L139.21 275.82L139.23 275.85L139.24 275.88L139.26 275.9L139.28 275.93L139.3 275.96L139.31 275.98L139.33 276.01L139.35 276.04L139.37 276.06L139.39 276.09L139.4 276.11L139.42 276.13L139.44 276.16L139.46 276.18L139.48 276.2L139.5 276.22L139.52 276.24L139.55 276.26L139.57 276.28L139.59 276.3L139.61 276.32L139.64 276.34L139.66 276.35L139.76 276.42L139.86 276.48L139.96 276.55L140.06 276.62L140.15 276.69L140.24 276.76L140.33 276.84L140.42 276.91L140.51 276.99L140.6 277.06L140.68 277.14L140.76 277.22L140.84 277.3L140.92 277.38L141 277.47L141.08 277.55L141.15 277.64L141.22 277.72L141.3 277.81L141.37 277.9L141.44 277.99L141.5 278.08L141.57 278.17L141.63 278.26L141.7 278.36L141.76 278.45L141.82 278.55L141.88 278.65L141.94 278.75L141.99 278.84L142.05 278.94L142.1 279.05L142.16 279.15L142.21 279.25L142.26 279.35L142.31 279.46L142.35 279.57L142.4 279.67L142.45 279.78L142.49 279.89L142.56 280.06L142.64 280.22L142.71 280.38L142.79 280.53L142.88 280.68L142.96 280.83L143.05 280.97L143.14 281.1L143.24 281.23L143.34 281.36L143.44 281.48L143.54 281.6L143.65 281.72L143.76 281.83L143.87 281.93L143.99 282.04L144.11 282.13L144.23 282.23L144.35 282.32L144.48 282.41L144.61 282.49L144.74 282.57L144.87 282.64L145.01 282.71L145.15 282.78L145.29 282.84L145.43 282.9L145.58 282.96L145.73 283.01L145.88 283.06L146.03 283.11L146.19 283.15L146.35 283.19L146.51 283.22L146.67 283.26L146.83 283.28L147 283.31L147.17 283.33L147.34 283.35L147.51 283.37L147.6 283.38L147.68 283.38L147.77 283.39L147.85 283.39L147.94 283.4L148.02 283.4L148.11 283.4L148.19 283.41L148.28 283.41L148.36 283.41L148.45 283.41L148.53 283.41L148.62 283.41L148.71 283.41L148.79 283.41L148.88 283.41L148.97 283.41L149.05 283.41L149.14 283.41L149.23 283.41L149.31 283.41L149.4 283.41L149.49 283.41L149.58 283.4L149.67 283.4L149.75 283.4L149.93 283.4L150.02 283.4L150.11 283.39L150.2 283.39L150.29 283.39L150.38 283.39L150.47 283.39L150.56 283.39L150.66 283.38L150.75 283.38L150.84 283.38L150.93 283.38L151.02 283.38L151.02 283.49L151.02 283.6L151.02 283.7L151.03 283.81L151.03 283.92L151.03 284.03L151.03 284.14L151.03 284.25L151.03 284.36L151.03 284.47L151.03 284.7L151.03 284.81L151.04 284.93L151.04 285.04L151.04 285.16L151.04 285.27L151.04 285.39L151.04 285.5L151.04 285.62L151.04 285.74L151.04 285.86L151.04 285.97L151.04 286.09L151.04 286.21L151.04 286.33L151.04 286.45L151.04 286.57L151.04 286.69L151.04 286.8L151.03 286.92L151.03 287.04L151.03 287.16L151.03 287.28L151.02 287.4L151.02 287.52L151.02 287.64L151.01 287.76L151.01 287.88L151 288L151 288.07L150.99 288.13L150.98 288.19L150.97 288.25L150.95 288.3L150.93 288.36L150.91 288.41L150.89 288.46L150.86 288.51L150.83 288.55L150.8 288.6L150.76 288.64L150.73 288.68L150.69 288.71L150.65 288.75L150.6 288.78L150.56 288.81L150.51 288.84L150.46 288.87L150.41 288.89L150.35 288.91L150.3 288.93L150.24 288.95L150.18 288.96L150.12 288.97L150.06 288.98L150 288.99L149.93 288.99L149.86 289L149.8 289L149.73 288.99L149.66 288.99L149.59 288.98L149.51 288.97L149.44 288.96L149.36 288.95L149.29 288.93L149.21 288.91L149.14 288.89L149.06 288.86L148.85 288.79L148.65 288.72L148.44 288.64L148.24 288.56L148.03 288.49L147.83 288.41L147.63 288.33L147.43 288.24L147.23 288.16L147.03 288.07L146.83 287.99L146.64 287.9L146.44 287.81L146.24 287.71L146.05 287.62L145.86 287.52L145.66 287.43L145.47 287.33L145.28 287.22L145.09 287.12L144.9 287.02L144.72 286.91L144.53 286.8L144.35 286.69L144.16 286.58L143.98 286.46L143.8 286.35L143.62 286.23L143.44 286.11L143.26 285.99L143.08 285.87L142.9 285.74L142.73 285.61L142.56 285.48L142.38 285.35L142.21 285.22L142.04 285.08L141.87 284.95L141.71 284.81L141.54 284.67L140.95 284.15L140.38 283.62L139.83 283.09L139.3 282.55L138.78 282.01L138.29 281.45L137.81 280.9L137.35 280.33L136.91 279.76L136.49 279.18L136.09 278.6L135.71 278.01L135.35 277.41L135.01 276.81L134.68 276.19L134.38 275.58L134.1 274.96L133.83 274.33L133.59 273.69L133.36 273.05L133.16 272.4L132.97 271.75L132.81 271.09L132.66 270.42L132.54 269.75L132.43 269.07L132.35 268.39L132.29 267.7L132.24 267L132.22 266.3L132.22 265.59L132.24 264.88L132.28 264.16L132.34 263.43L132.42 262.7L132.52 261.97L132.65 261.22L132.79 260.48L132.96 259.72L133.15 258.96L133.35 258.21L133.57 257.47L133.81 256.75L134.07 256.04L134.33 255.35L134.62 254.67L134.92 254.01L135.23 253.36L135.56 252.73L135.91 252.11L136.27 251.51L136.65 250.92L137.04 250.34L137.44 249.79L137.86 249.24L138.3 248.72L138.75 248.2L139.21 247.7L139.69 247.22L140.18 246.76L140.69 246.3L141.21 245.87L141.75 245.45L142.3 245.04L142.86 244.65L143.44 244.28L144.04 243.92L144.64 243.57L145.26 243.25L145.89 242.93L146.54 242.64L147.2 242.36L147.87 242.09L148.56 241.84L149.26 241.61L149.98 241.39L150.7 241.19L151.44 241L152.19 240.83L152.96 240.68L154.03 240.5L155.09 240.37L156.15 240.29L157.2 240.25L158.24 240.26L159.28 240.32Z" id="c9fTwzvNK"></path></defs><g><g><use xlink:href="#c9fTwzvNK" opacity="1" fill="#000000" fill-opacity="1"></use><g><use xlink:href="#c9fTwzvNK" opacity="1" fill-opacity="0" stroke="#000000" stroke-width="1" stroke-opacity="0"></use></g></g></g></svg>