<?xml version="1.0" encoding="UTF-8" standalone="no"?>
<!DOCTYPE svg PUBLIC "-//W3C//DTD SVG 1.1//EN" "http://www.w3.org/Graphics/SVG/1.1/DTD/svg11.dtd">
<svg version="1.1" xmlns="http://www.w3.org/2000/svg" xmlns:xlink="http://www.w3.org/1999/xlink" preserveAspectRatio="xMidYMid meet" viewBox="193.5625 241.61295180722894 54.00000000000003 54.41999999999999" width="50" height="50.42"><defs><path d="M195.86 242.61C195.15 242.61 194.56 243.2 194.56 243.92C194.56 248.7 194.56 286.95 194.56 291.73C194.56 292.45 195.15 293.03 195.86 293.03C196.92 293.03 202.17 293.03 211.62 293.03C211.62 293.03 211.62 293.02 211.62 293.02C212.33 293.01 212.88 292.62 212.9 291.94C212.97 290.19 212.92 288.44 212.92 286.74C211.65 286.8 210.44 286.96 209.24 286.89C206.6 286.74 204.57 285.61 203.52 283.03C202.89 281.5 201.95 280.18 200.49 279.31C200.22 279.15 199.98 278.91 199.77 278.66C199.5 278.34 199.55 278.01 199.98 277.93C200.41 277.84 200.89 277.78 201.32 277.86C203.01 278.17 204.17 279.23 205.07 280.64C206.83 283.42 209.55 284.28 212.61 282.99C212.78 282.92 213 282.75 213.03 282.59C213.28 281.35 213.74 280.23 214.67 279.24C213.63 279.05 212.68 278.91 211.74 278.7C209.04 278.07 206.61 276.95 204.84 274.71C203.39 272.89 202.73 270.76 202.43 268.49C201.95 264.94 202.38 261.61 204.82 258.77C204.94 258.63 205.01 258.34 204.95 258.16C204.34 256.16 204.43 254.18 205.04 252.21C205.36 251.17 205.45 251.12 206.51 251.26C206.57 251.27 206.63 251.29 206.7 251.3C208.82 251.65 210.64 252.68 212.44 253.78C212.68 253.93 213.05 254.02 213.32 253.96C217.61 252.91 221.9 252.92 226.2 253.96C226.45 254.02 226.78 253.93 227.02 253.81C228 253.3 228.93 252.7 229.92 252.22C231.08 251.66 232.29 251.23 233.6 251.26C233.82 251.26 234.18 251.48 234.25 251.68C235.04 253.76 235.21 255.89 234.58 258.05C234.51 258.28 234.61 258.61 234.74 258.84C235.36 259.98 236.22 261.02 236.61 262.23C237.8 265.89 237.37 269.53 235.74 272.97C234.26 276.13 231.5 277.73 228.23 278.56C227.13 278.84 226 279.01 224.81 279.24C226.37 280.87 226.61 282.86 226.59 284.94C226.56 287.08 226.57 289.23 226.56 291.38C226.56 292.42 227.02 293 227.81 293.03C227.81 293.03 244.56 293.03 244.56 293.03C244.56 288.12 244.56 248.83 244.56 243.92C244.56 243.2 243.98 242.61 243.26 242.61C233.78 242.61 200.6 242.61 195.86 242.61Z" id="d1aN6BdONU"></path></defs><g><g><use xlink:href="#d1aN6BdONU" opacity="1" fill="#000000" fill-opacity="1"></use><g><use xlink:href="#d1aN6BdONU" opacity="1" fill-opacity="0" stroke="#000000" stroke-width="1" stroke-opacity="0"></use></g></g></g></svg>