<?xml version="1.0" encoding="UTF-8" standalone="no"?>
<!DOCTYPE svg PUBLIC "-//W3C//DTD SVG 1.1//EN" "http://www.w3.org/Graphics/SVG/1.1/DTD/svg11.dtd">
<svg version="1.1" xmlns="http://www.w3.org/2000/svg" xmlns:xlink="http://www.w3.org/1999/xlink" preserveAspectRatio="xMidYMid meet" viewBox="7.346341757010848 239.63500000000008 48.059908242989145 53.99999999999997" width="44.06" height="50"><defs><path d="M51.72 240.64L51.76 240.64L51.8 240.65L51.84 240.66L51.87 240.67L51.91 240.68L51.94 240.69L51.98 240.71L52.01 240.72L52.04 240.74L52.07 240.76L52.1 240.78L52.13 240.81L52.16 240.83L52.19 240.85L52.21 240.88L52.23 240.91L52.26 240.94L52.28 240.96L52.3 240.99L52.31 241.03L52.33 241.06L52.35 241.09L52.36 241.13L52.37 241.16L52.38 241.2L52.39 241.23L52.4 241.27L52.4 241.31L52.41 241.35L52.41 241.39L52.41 241.43L52.4 241.47L48.52 284.92L48.52 284.96L48.51 285L48.5 285.04L48.49 285.08L48.48 285.12L48.47 285.16L48.45 285.2L48.44 285.24L48.42 285.28L48.4 285.31L48.38 285.35L48.36 285.39L48.34 285.43L48.31 285.46L48.29 285.5L48.26 285.53L48.23 285.57L48.2 285.6L48.17 285.63L48.14 285.67L48.11 285.7L48.08 285.73L48.05 285.75L48.01 285.78L47.98 285.81L47.94 285.83L47.91 285.85L47.87 285.87L47.83 285.89L47.8 285.91L47.76 285.93L47.72 285.95L47.68 285.96L47.64 285.97L31.15 290.54L31.11 290.55L31.07 290.56L31.03 290.57L30.99 290.58L30.94 290.59L30.89 290.6L30.85 290.6L30.8 290.61L30.75 290.61L30.7 290.62L30.65 290.62L30.6 290.63L30.55 290.63L30.5 290.63L30.45 290.63L30.4 290.63L30.35 290.64L30.3 290.63L30.24 290.63L30.19 290.63L30.14 290.63L30.09 290.63L30.04 290.62L29.99 290.62L29.94 290.61L29.89 290.61L29.85 290.6L29.8 290.6L29.75 290.59L29.71 290.58L29.67 290.57L29.62 290.56L29.58 290.55L29.54 290.54L13.1 285.98L13.06 285.97L13.02 285.95L12.99 285.94L12.95 285.92L12.91 285.9L12.87 285.88L12.84 285.86L12.8 285.84L12.77 285.81L12.73 285.79L12.7 285.76L12.66 285.73L12.63 285.7L12.6 285.67L12.57 285.64L12.54 285.61L12.51 285.58L12.48 285.54L12.46 285.51L12.43 285.47L12.41 285.43L12.38 285.4L12.36 285.36L12.34 285.32L12.32 285.28L12.31 285.24L12.29 285.2L12.28 285.16L12.26 285.12L12.25 285.08L12.24 285.04L12.23 285L12.23 284.96L12.22 284.92L8.35 241.47L8.35 241.44L8.35 241.41L8.35 241.39L8.35 241.36L8.35 241.33L8.36 241.31L8.37 241.28L8.38 241.26L8.39 241.23L8.4 241.21L8.41 241.18L8.42 241.15L8.44 241.13L8.46 241.1L8.48 241.08L8.5 241.05L8.52 241.03L8.54 241.01L8.57 240.98L8.59 240.96L8.62 240.93L8.65 240.91L8.68 240.89L8.71 240.86L8.74 240.84L8.78 240.82L8.81 240.79L8.85 240.77L8.89 240.75L8.93 240.72L8.97 240.7L9.02 240.68L9.06 240.66L9.11 240.64L51.64 240.64L51.68 240.64L51.72 240.64ZM17.3 249.86L17.26 249.86L17.23 249.87L17.19 249.87L17.16 249.88L17.13 249.88L17.09 249.89L17.06 249.9L17.03 249.91L17 249.92L16.97 249.94L16.94 249.95L16.91 249.97L16.89 249.98L16.86 250L16.84 250.02L16.81 250.04L16.79 250.06L16.76 250.08L16.74 250.1L16.72 250.12L16.7 250.14L16.69 250.17L16.67 250.19L16.65 250.22L16.64 250.25L16.62 250.27L16.61 250.3L16.6 250.33L16.59 250.36L16.58 250.38L16.58 250.41L16.57 250.44L16.57 250.48L16.56 250.51L16.56 250.54L16.56 250.57L16.57 250.6L16.58 250.74L16.59 250.89L16.61 251.1L16.63 251.37L16.67 251.77L16.69 251.94L16.71 252.18L17.92 265.76L17.92 265.8L17.93 265.83L17.94 265.87L17.94 265.9L17.95 265.94L17.97 265.97L17.98 266.01L17.99 266.04L18.01 266.07L18.02 266.1L18.04 266.13L18.06 266.16L18.08 266.19L18.1 266.22L18.12 266.25L18.14 266.27L18.17 266.3L18.19 266.33L18.22 266.35L18.24 266.37L18.27 266.4L18.3 266.42L18.33 266.44L18.36 266.46L18.39 266.47L18.42 266.49L18.45 266.51L18.48 266.52L18.52 266.54L18.55 266.55L18.58 266.56L18.62 266.57L18.65 266.58L18.69 266.58L18.72 266.59L18.76 266.59L18.79 266.59L18.83 266.59L36.34 266.59L36.37 266.6L36.41 266.6L36.44 266.6L36.48 266.61L36.51 266.61L36.54 266.62L36.58 266.63L36.61 266.64L36.64 266.65L36.67 266.67L36.7 266.68L36.73 266.7L36.76 266.71L36.78 266.73L36.81 266.75L36.83 266.77L36.86 266.79L36.88 266.82L36.9 266.84L36.93 266.86L36.95 266.89L36.96 266.91L36.98 266.94L37 266.97L37.01 267L37.03 267.03L37.04 267.06L37.05 267.09L37.06 267.12L37.07 267.15L37.08 267.18L37.09 267.22L37.09 267.25L37.1 267.29L37.1 267.32L37.1 267.36L37.1 267.39L37.1 267.43L36.6 272.94L36.6 272.97L36.59 273.01L36.59 273.05L36.58 273.08L36.57 273.12L36.56 273.15L36.55 273.19L36.53 273.22L36.52 273.26L36.5 273.3L36.48 273.33L36.47 273.36L36.45 273.4L36.43 273.43L36.41 273.46L36.38 273.5L36.36 273.53L36.34 273.56L36.31 273.59L36.29 273.62L36.26 273.65L36.23 273.68L36.21 273.7L36.18 273.73L36.15 273.76L36.12 273.78L36.09 273.8L36.06 273.83L36.02 273.85L35.99 273.87L35.96 273.89L35.93 273.91L35.89 273.92L35.86 273.94L35.83 273.95L35.79 273.97L35.76 273.98L35.72 273.99L31.16 275.22L31.03 275.26L30.84 275.31L30.69 275.35L30.57 275.38L30.49 275.4L30.44 275.41L30.4 275.42L30.37 275.43L30.35 275.44L30.34 275.43L30.32 275.43L30.25 275.41L30.18 275.39L30.09 275.37L30.01 275.35L29.87 275.31L29.81 275.29L29.68 275.26L29.54 275.22L25 273.99L24.96 273.98L24.93 273.97L24.89 273.96L24.86 273.94L24.82 273.93L24.79 273.91L24.76 273.89L24.72 273.87L24.69 273.85L24.66 273.83L24.63 273.81L24.6 273.78L24.57 273.76L24.54 273.73L24.51 273.71L24.48 273.68L24.46 273.65L24.43 273.62L24.4 273.59L24.38 273.56L24.35 273.53L24.33 273.5L24.31 273.47L24.29 273.43L24.27 273.4L24.25 273.37L24.23 273.33L24.21 273.3L24.2 273.26L24.18 273.23L24.17 273.19L24.16 273.16L24.15 273.12L24.14 273.09L24.13 273.05L24.12 273.01L24.12 272.98L24.11 272.94L23.87 270.19L23.86 270.15L23.86 270.12L23.85 270.08L23.84 270.05L23.83 270.01L23.82 269.98L23.81 269.95L23.8 269.91L23.78 269.88L23.77 269.85L23.75 269.82L23.73 269.79L23.71 269.76L23.69 269.73L23.67 269.7L23.64 269.68L23.62 269.65L23.6 269.63L23.57 269.6L23.54 269.58L23.52 269.56L23.49 269.54L23.46 269.52L23.43 269.5L23.4 269.48L23.37 269.46L23.34 269.45L23.31 269.43L23.27 269.42L23.24 269.41L23.21 269.39L23.17 269.38L23.14 269.38L23.1 269.37L23.07 269.36L23.03 269.36L23 269.36L22.96 269.36L19.08 269.36L19.04 269.36L19.01 269.36L18.97 269.36L18.94 269.37L18.9 269.38L18.87 269.38L18.84 269.39L18.8 269.41L18.77 269.42L18.74 269.43L18.71 269.45L18.68 269.46L18.66 269.48L18.63 269.5L18.6 269.52L18.58 269.54L18.55 269.56L18.53 269.58L18.51 269.6L18.49 269.63L18.47 269.65L18.45 269.68L18.43 269.7L18.41 269.73L18.4 269.76L18.38 269.79L18.37 269.82L18.36 269.85L18.35 269.88L18.34 269.91L18.33 269.95L18.32 269.98L18.32 270.01L18.31 270.05L18.31 270.08L18.31 270.12L18.31 270.15L18.32 270.19L18.94 277.22L18.95 277.25L18.95 277.29L18.96 277.32L18.97 277.36L18.98 277.4L18.99 277.43L19 277.47L19.01 277.5L19.03 277.54L19.04 277.57L19.06 277.61L19.08 277.64L19.1 277.68L19.12 277.71L19.14 277.74L19.16 277.78L19.18 277.81L19.21 277.84L19.23 277.87L19.26 277.9L19.28 277.93L19.31 277.96L19.34 277.98L19.37 278.01L19.39 278.04L19.42 278.06L19.46 278.09L19.49 278.11L19.52 278.13L19.55 278.15L19.58 278.17L19.62 278.19L19.65 278.21L19.68 278.22L19.72 278.24L19.75 278.25L19.79 278.26L19.82 278.27L29.55 280.97L29.61 280.99L29.68 281.01L29.72 281.02L29.78 281.04L29.81 281.04L29.84 281.05L29.9 281.07L29.96 281.08L30.02 281.1L30.04 281.11L30.09 281.12L30.14 281.13L30.18 281.14L30.22 281.16L30.26 281.16L30.29 281.17L30.31 281.18L30.33 281.18L30.35 281.19L30.36 281.19L30.36 281.19L30.38 281.19L30.45 281.17L30.59 281.13L30.71 281.1L30.79 281.07L30.91 281.04L31.04 281L31.18 280.97L40.9 278.27L40.93 278.26L40.96 278.25L41 278.24L41.03 278.23L41.07 278.21L41.1 278.2L41.13 278.19L41.16 278.17L41.2 278.16L41.23 278.14L41.26 278.12L41.29 278.11L41.32 278.09L41.34 278.07L41.37 278.05L41.4 278.03L41.43 278.02L41.45 278L41.48 277.98L41.5 277.96L41.52 277.94L41.54 277.92L41.57 277.9L41.59 277.87L41.6 277.85L41.62 277.83L41.64 277.81L41.65 277.79L41.67 277.77L41.68 277.75L41.69 277.73L41.71 277.71L41.71 277.68L41.72 277.66L41.73 277.64L41.74 277.62L41.74 277.6L41.74 277.58L41.74 277.56L41.75 277.49L41.76 277.41L41.77 277.29L41.77 277.22L41.78 277.15L41.8 276.97L41.8 276.89L41.81 276.78L41.82 276.66L41.84 276.51L41.84 276.43L41.86 276.28L43.01 263.38L43.03 263.18L43.03 263.14L43.04 263.06L43.05 262.93L43.06 262.75L43.08 262.57L43.09 262.44L43.1 262.35L43.11 262.22L43.12 262.09L43.13 261.98L43.14 261.9L43.14 261.87L43.15 261.83L43.15 261.8L43.15 261.77L43.15 261.74L43.15 261.71L43.15 261.68L43.15 261.65L43.14 261.61L43.14 261.59L43.13 261.56L43.12 261.53L43.11 261.5L43.1 261.47L43.09 261.45L43.08 261.42L43.06 261.39L43.05 261.37L43.03 261.34L43.02 261.32L43 261.3L42.98 261.28L42.96 261.26L42.94 261.24L42.92 261.22L42.89 261.2L42.87 261.18L42.85 261.17L42.82 261.15L42.8 261.14L42.77 261.12L42.74 261.11L42.72 261.1L42.69 261.09L42.66 261.08L42.63 261.08L42.6 261.07L42.57 261.07L42.54 261.06L42.51 261.06L42.47 261.06L23.89 261.06L23.85 261.06L23.82 261.06L23.78 261.05L23.75 261.05L23.71 261.04L23.68 261.03L23.64 261.02L23.61 261.01L23.58 261L23.54 260.99L23.51 260.97L23.48 260.96L23.45 260.94L23.42 260.92L23.39 260.9L23.36 260.88L23.33 260.86L23.3 260.84L23.28 260.81L23.25 260.79L23.23 260.77L23.2 260.74L23.18 260.71L23.16 260.68L23.14 260.66L23.12 260.63L23.1 260.6L23.08 260.57L23.07 260.53L23.05 260.5L23.04 260.47L23.03 260.44L23.01 260.4L23 260.37L23 260.33L22.99 260.3L22.98 260.26L22.98 260.23L22.62 256.22L22.62 256.19L22.62 256.15L22.62 256.12L22.62 256.08L22.62 256.05L22.63 256.01L22.64 255.98L22.64 255.95L22.65 255.92L22.66 255.89L22.68 255.85L22.69 255.82L22.7 255.8L22.72 255.77L22.74 255.74L22.75 255.71L22.77 255.69L22.79 255.66L22.81 255.64L22.84 255.61L22.86 255.59L22.88 255.57L22.91 255.55L22.94 255.53L22.96 255.51L22.99 255.5L23.02 255.48L23.05 255.46L23.08 255.45L23.11 255.44L23.14 255.43L23.17 255.42L23.21 255.41L23.24 255.4L23.28 255.4L23.31 255.4L23.35 255.39L23.38 255.39L43.71 255.39L43.71 255.39L43.72 255.39L43.72 255.38L43.72 255.37L43.72 255.36L43.72 255.34L43.73 255.32L43.73 255.29L43.73 255.27L43.73 255.26L43.73 255.23L43.74 255.19L43.74 255.15L43.74 255.13L43.75 255.11L43.75 255.07L43.76 255.02L43.76 255L43.76 254.95L43.77 254.9L43.77 254.88L43.77 254.82L43.78 254.77L43.79 254.68L43.8 254.52L43.83 254.25L43.87 253.71L43.9 253.47L43.91 253.32L44.01 252.2L44.05 251.77L44.06 251.6L44.1 251.24L44.11 251.02L44.14 250.78L44.15 250.6L44.15 250.57L44.15 250.54L44.15 250.51L44.15 250.48L44.15 250.44L44.14 250.41L44.14 250.38L44.13 250.36L44.12 250.33L44.11 250.3L44.09 250.27L44.08 250.24L44.07 250.22L44.05 250.19L44.03 250.17L44.01 250.14L44 250.12L43.98 250.1L43.95 250.08L43.93 250.06L43.91 250.04L43.88 250.02L43.86 250L43.83 249.98L43.8 249.97L43.78 249.95L43.75 249.94L43.72 249.92L43.69 249.91L43.66 249.9L43.62 249.89L43.59 249.88L43.56 249.88L43.52 249.87L43.49 249.87L43.45 249.86L43.42 249.86L43.38 249.86L17.34 249.86L17.3 249.86Z" id="d2vKIBt84G"></path></defs><g><g><use xlink:href="#d2vKIBt84G" opacity="1" fill="#dd512a" fill-opacity="1"></use><g><use xlink:href="#d2vKIBt84G" opacity="1" fill-opacity="0" stroke="#000000" stroke-width="1" stroke-opacity="0"></use></g></g></g></svg>