<?xml version="1.0" encoding="UTF-8" standalone="no"?>
<!DOCTYPE svg PUBLIC "-//W3C//DTD SVG 1.1//EN" "http://www.w3.org/Graphics/SVG/1.1/DTD/svg11.dtd">
<svg version="1.1" xmlns="http://www.w3.org/2000/svg" xmlns:xlink="http://www.w3.org/1999/xlink" preserveAspectRatio="xMidYMid meet" viewBox="349.2698536455821 458.3157894736843 66.00000451529377 105.11000000000001" width="28.06" height="50"><defs><path d="M401.99 466.32C391.41 466.32 384.8 466.32 382.15 466.32C373.25 466.32 365.76 472.97 364.7 481.81C362.95 496.53 359.19 528.05 357.35 543.49C356.59 549.84 361.55 555.43 367.94 555.43C376.03 555.43 389.08 555.43 397.37 555.43C403.25 555.43 407.83 550.34 407.21 544.5C406.17 534.55 403.86 512.63 402.74 501.93C402.31 497.83 398.92 494.68 394.8 494.55C392.27 494.47 394.2 494.53 392.26 494.47C386.75 494.29 382.23 498.76 382.32 504.26C382.39 508.22 382.57 518.1 382.85 533.92" id="bu2m7aNGq"></path></defs><g><g><g><use xlink:href="#bu2m7aNGq" opacity="1" fill-opacity="0" stroke="#ffffff" stroke-width="5" stroke-opacity="1"></use></g></g></g></svg>